<svg xmlns="http://www.w3.org/2000/svg" xmlns:xlink="http://www.w3.org/1999/xlink" viewBox="0 0 350 230"><defs><style>.cls-1{fill:#fff;}.cls-11,.cls-2{fill:none;}.cls-3{clip-path:url(#clip-path);}.cls-4{fill:#f3f3f3;}.cls-5{clip-path:url(#clip-path-2);}.cls-6{clip-path:url(#clip-path-3);}.cls-7{fill:url(#linear-gradient);}.cls-8{fill:#ff4545;stroke:#ef3e3e;}.cls-10,.cls-11,.cls-8,.cls-9{stroke-miterlimit:10;}.cls-9{fill:#ffbe00;stroke:#e8a012;}.cls-10{fill:#00d746;stroke:#12b52e;}.cls-11{stroke:#fff;stroke-width:9px;}</style><clipPath id="clip-path" transform="translate(-81 -141)"><rect class="cls-1" x="81" y="141" width="350" height="230" rx="5"/></clipPath><clipPath id="clip-path-2" transform="translate(-81 -141)"><rect class="cls-2" x="81" y="141" width="350" height="230" rx="5"/></clipPath><clipPath id="clip-path-3" transform="translate(-81 -141)"><rect class="cls-2" x="81" y="142" width="350" height="230" rx="5"/></clipPath><linearGradient id="linear-gradient" x1="175" y1="1.3" x2="175" y2="21.46" gradientUnits="userSpaceOnUse"><stop offset="0" stop-color="#e1e1e1"/><stop offset="0.16" stop-color="#ddd"/><stop offset="1" stop-color="#cecece"/></linearGradient></defs><g id="Top_border" data-name="Top border"><rect class="cls-1" width="350" height="230" rx="5"/><g class="cls-3"><rect class="cls-4" width="350" height="20"/></g></g><g id="Terminal_area" data-name="Terminal area"><g class="cls-5"><rect y="20" width="350" height="210"/></g></g><g id="Header"><g class="cls-6"><rect class="cls-7" y="1" width="350" height="20"/></g></g><g id="Close"><circle class="cls-8" cx="9.27" cy="10.59" r="4"/></g><g id="Minimize"><circle class="cls-9" cx="22.27" cy="10.59" r="4"/></g><g id="Maximize"><circle class="cls-10" cx="34.25" cy="10.46" r="4"/></g><g id="Text"><path class="cls-1" d="M249.34,245.54l-51.43,28.67a4.48,4.48,0,0,1-1.87.67,2.39,2.39,0,0,1-2.37-2.37c0-.95.64-1.78,1.92-2.5l44.07-24.47-44-24.46c-1.29-.72-1.93-1.55-1.93-2.5a2.31,2.31,0,0,1,.71-1.67,2.28,2.28,0,0,1,1.67-.7,4.48,4.48,0,0,1,1.87.67Z" transform="translate(-81 -141)"/><path class="cls-1" d="M321.33,310.34H258.07a3.67,3.67,0,0,1-2.44-.65,2.38,2.38,0,0,1,0-3.45,3.62,3.62,0,0,1,2.44-.66h63.26a3.62,3.62,0,0,1,2.47.66,2.45,2.45,0,0,1,0,3.45A3.68,3.68,0,0,1,321.33,310.34Z" transform="translate(-81 -141)"/><rect class="cls-11" x="84.94" y="35.94" width="178.11" height="178.11"/></g></svg>