<svg id="Text" xmlns="http://www.w3.org/2000/svg" viewBox="0 0 512 512"><defs><style>.cls-1{fill:#fff;}</style></defs><rect x="7.5" y="7.5" width="497" height="497"/><path class="cls-1" d="M497,15V497H15V15H497M512,0H0V512H512V0Z"/><path class="cls-1" d="M188.21,195.84,86.35,139.39q-7.66-4.29-10.2-7.67a14,14,0,0,1-2.53-8.59,15.49,15.49,0,0,1,4.76-11.35A15.32,15.32,0,0,1,89.58,107c2.65,0,6.75,1.48,12.27,4.45l151.71,84.37L101.85,280.21c-5.52,3.07-9.62,4.6-12.27,4.6a15.32,15.32,0,0,1-11.2-4.76,15.67,15.67,0,0,1-4.76-11.5A14,14,0,0,1,76.15,260q2.53-3.37,10.2-7.67Z"/><path class="cls-1" d="M430.58,379.76H257.85q-11.36,0-16.18-4.29a14.47,14.47,0,0,1-4.83-11.35,14.68,14.68,0,0,1,4.83-11.43q4.83-4.38,16.18-4.38H430.58q11.19,0,16,4.38a15.84,15.84,0,0,1,.08,22.7Q441.92,379.76,430.58,379.76Z"/></svg>